HIERARCHY
ROOT hips
{
  OFFSET 0 9.313263304106702 1.2146308026317778
  CHANNELS 6 Xposition Yposition Zposition Yrotation Xrotation Zrotation
  JOINT spine
  {
    OFFSET -6.402521e-31 0.5173342420023708 0
    CHANNELS 3 Yrotation Xrotation Zrotation
    JOINT chest
    {
      OFFSET 0 1.130544299341115 0
      CHANNELS 3 Yrotation Xrotation Zrotation
      JOINT upperChest
      {
        OFFSET 0 1.0863555061129995 0
        CHANNELS 3 Yrotation Xrotation Zrotation
        JOINT neck
        {
          OFFSET 0 1.3773706506454462 0
          CHANNELS 3 Yrotation Xrotation Zrotation
          JOINT head
          {
            OFFSET 0 0.7374408940073979 0
            CHANNELS 3 Yrotation Xrotation Zrotation
            JOINT leftEye
            {
              OFFSET 0.25066580148932727 0.6408406698778757 0.15963719178883284
              CHANNELS 3 Yrotation Xrotation Zrotation
              End Site
              {
                OFFSET 0.25066580148932727 0.6408406698778757 0.15963719178883284
              }
            }
            JOINT rightEye
            {
              OFFSET -0.25066576739704244 0.6408406384191823 0.15963727561643756
              CHANNELS 3 Yrotation Xrotation Zrotation
              End Site
              {
                OFFSET -0.25066576739704244 0.6408406384191823 0.15963727561643756
              }
            }
          }
        }
        JOINT leftShoulder
        {
          OFFSET 0.3761817444281191 1.0539491987447769 0
          CHANNELS 3 Yrotation Xrotation Zrotation
          JOINT leftUpperArm
          {
            OFFSET 0.8702844380000002 0 0
            CHANNELS 3 Yrotation Xrotation Zrotation
            JOINT leftLowerArm
            {
              OFFSET 2.198527310000323 0 0
              CHANNELS 3 Yrotation Xrotation Zrotation
              JOINT leftHand
              {
                OFFSET 2.146852313968281 0 0
                CHANNELS 3 Yrotation Xrotation Zrotation
                JOINT leftIndexProximal
                {
                  OFFSET 0.6585177834681599 0.07380250427007962 0.18382213159631788
                  CHANNELS 3 Yrotation Xrotation Zrotation
                  JOINT leftIndexIntermediate
                  {
                    OFFSET 0.3323021288626682 -0.009606893929485771 -0.012820872253340998
                    CHANNELS 3 Yrotation Xrotation Zrotation
                    JOINT leftIndexDistal
                    {
                      OFFSET 0.2045908926985518 -0.0071133989147997845 -0.006828784783599051
                      CHANNELS 3 Yrotation Xrotation Zrotation
                      End Site
                      {
                        OFFSET 0.2045908926985518 -0.0071133989147997845 -0.006828784783599051
                      }
                    }
                  }
                }
                JOINT leftLittleProximal
                {
                  OFFSET 0.6110054258835662 0.07380246363125398 -0.29175655876064077
                  CHANNELS 3 Yrotation Xrotation Zrotation
                  JOINT leftLittleIntermediate
                  {
                    OFFSET 0.3144281999999998 -2.5124724523095665e-9 1.8658118799974588e-7
                    CHANNELS 3 Yrotation Xrotation Zrotation
                    JOINT leftLittleDistal
                    {
                      OFFSET 0.18116185580251631 0.002815456192251098 0.0034826415518049436
                      CHANNELS 3 Yrotation Xrotation Zrotation
                      End Site
                      {
                        OFFSET 0.18116185580251631 0.002815456192251098 0.0034826415518049436
                      }
                    }
                  }
                }
                JOINT leftMiddleProximal
                {
                  OFFSET 0.6637478005691111 0.07380246480054087 0.02046981859247815
                  CHANNELS 3 Yrotation Xrotation Zrotation
                  JOINT leftMiddleIntermediate
                  {
                    OFFSET 0.3705733999999994 -2.9611069152224445e-9 9.35054791928458e-8
                    CHANNELS 3 Yrotation Xrotation Zrotation
                    JOINT leftMiddleDistal
                    {
                      OFFSET 0.22861063500000056 -1.82673876025774e-9 -1.6740782024515788e-7
                      CHANNELS 3 Yrotation Xrotation Zrotation
                      End Site
                      {
                        OFFSET 0.22861063500000056 -1.82673876025774e-9 -1.6740782024515788e-7
                      }
                    }
                  }
                }
                JOINT leftRingProximal
                {
                  OFFSET 0.6561845547265777 0.07380246406440083 -0.13588087571513918
                  CHANNELS 3 Yrotation Xrotation Zrotation
                  JOINT leftRingIntermediate
                  {
                    OFFSET 0.3437531000000005 -2.746796123886952e-9 1.4935781944558357e-7
                    CHANNELS 3 Yrotation Xrotation Zrotation
                    JOINT leftRingDistal
                    {
                      OFFSET 0.1983118991198174 -0.002467117924596085 -0.004538141969590015
                      CHANNELS 3 Yrotation Xrotation Zrotation
                      End Site
                      {
                        OFFSET 0.1983118991198174 -0.002467117924596085 -0.004538141969590015
                      }
                    }
                  }
                }
                JOINT leftThumbProximal
                {
                  OFFSET 0.09767004258864787 -0.14930060425447422 -0.07008212897521154
                  CHANNELS 3 Yrotation Xrotation Zrotation
                  JOINT leftThumbIntermediate
                  {
                    OFFSET 0.36682123028154767 -0.015768465060082004 0.28693641268151077
                    CHANNELS 3 Yrotation Xrotation Zrotation
                    JOINT leftThumbDistal
                    {
                      OFFSET 0.21091084272403915 -0.016756648201192714 0.1933767059105508
                      CHANNELS 3 Yrotation Xrotation Zrotation
                      End Site
                      {
                        OFFSET 0.21091084272403915 -0.016756648201192714 0.1933767059105508
                      }
                    }
                  }
                }
              }
            }
          }
        }
        JOINT rightShoulder
        {
          OFFSET -0.37618174442811925 1.0539491987447769 0
          CHANNELS 3 Yrotation Xrotation Zrotation
          JOINT rightUpperArm
          {
            OFFSET -0.870284438 0 0
            CHANNELS 3 Yrotation Xrotation Zrotation
            JOINT rightLowerArm
            {
              OFFSET -2.1985273100003235 0 0
              CHANNELS 3 Yrotation Xrotation Zrotation
              JOINT rightHand
              {
                OFFSET -2.1468523139682802 0 0
                CHANNELS 3 Yrotation Xrotation Zrotation
                JOINT rightIndexProximal
                {
                  OFFSET -0.6585177834681599 0.07380250427007962 0.18382213159631788
                  CHANNELS 3 Yrotation Xrotation Zrotation
                  JOINT rightIndexIntermediate
                  {
                    OFFSET -0.3323021288626682 -0.009606893929485771 -0.012820872253340998
                    CHANNELS 3 Yrotation Xrotation Zrotation
                    JOINT rightIndexDistal
                    {
                      OFFSET -0.2045908926985518 -0.0071133989147997845 -0.006828784783599051
                      CHANNELS 3 Yrotation Xrotation Zrotation
                      End Site
                      {
                        OFFSET -0.2045908926985518 -0.0071133989147997845 -0.006828784783599051
                      }
                    }
                  }
                }
                JOINT rightLittleProximal
                {
                  OFFSET -0.6110054258835662 0.07380246363125398 -0.29175655876064077
                  CHANNELS 3 Yrotation Xrotation Zrotation
                  JOINT rightLittleIntermediate
                  {
                    OFFSET -0.3144281999999998 -2.5124724523095665e-9 1.8658118799974588e-7
                    CHANNELS 3 Yrotation Xrotation Zrotation
                    JOINT rightLittleDistal
                    {
                      OFFSET -0.18116185580251631 0.002815456192251098 0.0034826415518049436
                      CHANNELS 3 Yrotation Xrotation Zrotation
                      End Site
                      {
                        OFFSET -0.18116185580251631 0.002815456192251098 0.0034826415518049436
                      }
                    }
                  }
                }
                JOINT rightMiddleProximal
                {
                  OFFSET -0.6637478005691111 0.07380246480054087 0.02046981859247815
                  CHANNELS 3 Yrotation Xrotation Zrotation
                  JOINT rightMiddleIntermediate
                  {
                    OFFSET -0.3705733999999994 -2.9611069152224445e-9 9.35054791928458e-8
                    CHANNELS 3 Yrotation Xrotation Zrotation
                    JOINT rightMiddleDistal
                    {
                      OFFSET -0.22861063500000056 -1.82673876025774e-9 -1.6740782024515788e-7
                      CHANNELS 3 Yrotation Xrotation Zrotation
                      End Site
                      {
                        OFFSET -0.22861063500000056 -1.82673876025774e-9 -1.6740782024515788e-7
                      }
                    }
                  }
                }
                JOINT rightRingProximal
                {
                  OFFSET -0.6561845547265777 0.07380246406440083 -0.13588087571513918
                  CHANNELS 3 Yrotation Xrotation Zrotation
                  JOINT rightRingIntermediate
                  {
                    OFFSET -0.3437531000000005 -2.746796123886952e-9 1.4935781944558357e-7
                    CHANNELS 3 Yrotation Xrotation Zrotation
                    JOINT rightRingDistal
                    {
                      OFFSET -0.1983118991198174 -0.002467117924596085 -0.004538141969590015
                      CHANNELS 3 Yrotation Xrotation Zrotation
                      End Site
                      {
                        OFFSET -0.1983118991198174 -0.002467117924596085 -0.004538141969590015
                      }
                    }
                  }
                }
                JOINT rightThumbProximal
                {
                  OFFSET -0.09767004258864787 -0.14930060425447422 -0.07008212897521154
                  CHANNELS 3 Yrotation Xrotation Zrotation
                  JOINT rightThumbIntermediate
                  {
                    OFFSET -0.36682123028154767 -0.015768465060082004 0.28693641268151077
                    CHANNELS 3 Yrotation Xrotation Zrotation
                    JOINT rightThumbDistal
                    {
                      OFFSET -0.21091084272403915 -0.016756648201192714 0.1933767059105508
                      CHANNELS 3 Yrotation Xrotation Zrotation
                      End Site
                      {
                        OFFSET -0.21091084272403915 -0.016756648201192714 0.1933767059105508
                      }
                    }
                  }
                }
              }
            }
          }
        }
      }
    }
  }
  JOINT leftUpperLeg
  {
    OFFSET 0.7715603 -0.3993844658041501 0
    CHANNELS 3 Yrotation Xrotation Zrotation
    JOINT leftLowerLeg
    {
      OFFSET 0 -3.529830000249343 0
      CHANNELS 3 Yrotation Xrotation Zrotation
      JOINT leftFoot
      {
        OFFSET 0 -4.154939295409685 0.004208579085223096
        CHANNELS 3 Yrotation Xrotation Zrotation
        JOINT leftToes
        {
          OFFSET 0 -0.6353414391261847 1.10414981190622
          CHANNELS 3 Yrotation Xrotation Zrotation
          End Site
          {
            OFFSET 0 -0.6015820691747853 1.10414981190622
          }
        }
      }
    }
  }
  JOINT rightUpperLeg
  {
    OFFSET -0.7715603 -0.3993844658041501 0
    CHANNELS 3 Yrotation Xrotation Zrotation
    JOINT rightLowerLeg
    {
      OFFSET 0 -3.529830000249343 0
      CHANNELS 3 Yrotation Xrotation Zrotation
      JOINT rightFoot
      {
        OFFSET 0 -4.154939295409685 0.004208579085223096
        CHANNELS 3 Yrotation Xrotation Zrotation
        JOINT rightToes
        {
          OFFSET 0 -0.6353414391261847 1.10414981190622
          CHANNELS 3 Yrotation Xrotation Zrotation
          End Site
          {
            OFFSET 0 -0.6015820691747853 1.10414981190622
          }
        }
      }
    }
  }
}
MOTION
Frames: 4
Frame Time: 0.03333333333333333
-0.017300781539895317 8.926841562444512 1.405072736176977 -5.120520620894454 -1.3493132225537616 0.8065666013003135 -0.14977788518641477 0.27637005559755284 0.04059083482453444 -0.12322958922635208 -2.399081771519887 -0.3292360852737103 0 0 0 5.0241137752635865 1.0275779657952215 2.8135151233354674 -2.046226650677359 10.565412575959913 -2.137766794792182 0 0 0 0 0 0 5.227334615057207 0.7965987701051244 -13.252168402801953 -19.994263274996534 9.011902133515798 -69.50909001335255 -14.005486038422106 -0.000008699834220634321 -0.0000051219628163628385 15.561593609994375 -12.69639861211455 -1.1731042106622926 0.669696045507728 0.03250725323214218 -5.600100967657953 0.908767069454031 0.05931110550896107 -7.452106305126502 0.9532741838763691 0.06700464460817741 -7.987588355107856 6.450067310303722 2.2047455697553473 -23.568613793728364 -2.0811484619615443 0.36112214962073313 -17.401038743775977 0.9748211594813186 0.0992747481754855 -8.185714440814465 1.3355875109281132 0.13020686302761572 -11.165972430554978 1.3969923572056158 0.14182662171296942 -11.634540922776427 1.1996945955439846 0.1046509093099057 -9.970867163276768 2.102426530670897 0.3273450000947448 -17.691741739001085 1.7334906896345257 0.22099022462483703 -14.517116821496025 0.7434520566530513 0.04016100201011165 -6.172287873738893 27.568025890376866 -2.2701293816583683 10.871186578098046 18.526910547978414 7.576045847131238 5.285207060694236 14.399270938109758 0.3169708993213512 3.794586442239116 -0.8795647611133225 1.9737049721147828 22.33725573415915 25.53367860904238 18.416653553404252 62.23154651439895 17.58624137838348 -0.000008211657650796844 -0.000011374487533575822 -16.958976722968526 -38.55694516362623 6.649862653499175 -1.0861176692567054 0.08495761259781227 8.793562496809807 -2.831833435635039 0.6081940369535637 24.169449992654815 -1.2510797305390349 0.11108830064346495 10.235993405783194 -2.870087763821611 0.6166409021591253 24.74578795943057 -1.4639999242102533 0.1408996341551023 12.883095712951947 -3.0204616002080305 0.61339466774092 25.017546806955277 -1.5019804390392946 0.1631950777578895 11.947698139505839 -2.3228706070521126 0.4180275609253997 20.25204486173756 -1.811314467269362 0.2284072801363152 14.717575023616327 -2.2897757855990943 0.38603115188741277 19.283894769870475 -2.428566976937716 0.4292441053740469 20.127924676116333 -1.6214006202365707 0.19259115333650523 13.320467449979448 -22.97748143520628 0.6757649149024192 -15.503197835909022 -21.759158493335185 9.10448567010945 -6.103917990516841 -16.15815893793145 4.077309763825994 -6.994377339348363 6.722885686015222 1.073985060445877 0.9043542437885163 0.592794894284494 8.641929548431778 -0.3979120109172837 0.14053342801653732 -8.261088582635796 -1.1698031099058583 0.0000015971889194227565 -0.36022975171602367 -2.1425387746160153e-9 -7.414496715232993 -2.05392835375676 -0.34623459772361487 3.433349413505791 12.543923354991103 -0.28403426815143856 0.00331083920834801 -9.22422676779713 -0.15035124036857592 0.0000019917264437373335 -0.00006536718809422357 -2.1346038300267876e-7
-0.017613920975815166 8.926961205222389 1.4049784660126607 -5.1386612146314565 -1.345718801963246 0.8079734890504564 -0.15416768933074163 0.2804923368799849 0.043807244931129564 -0.12657705057043178 -2.4017589935550574 -0.33353230676156004 0 0 0 5.0028694687971065 1.042691372035157 2.876447523861097 -2.0993952920893073 10.472356650007073 -2.143694297938216 0 0 0 0 0 0 5.2287684077306436 0.7950336520415766 -13.24639864626507 -19.976228274965415 9.052263576412786 -69.5155692257753 -14.086621248966802 -0.000029264441379659292 0.00000781667855934641 15.605821721905414 -12.698964632479523 -1.1747551876911417 0.669696045507728 0.03250713650525769 -5.600063339234342 0.9087671761623682 0.05929983969285953 -7.452124929507848 0.9532773850866981 0.06701345582503698 -7.987579425640213 6.450069473370562 2.2047351032802363 -23.568621425320877 -2.0811459022792675 0.3611258582736725 -17.40103283414335 0.9748126229678953 0.09926299542999666 -8.185730983516653 1.3355876176210992 0.13018606558150667 -11.165949329905718 1.3969923572056158 0.14182662171296942 -11.634540922776427 1.1996945955439846 0.1046509093099057 -9.970867163276768 2.1024348494959186 0.327332353366216 -17.691730940256342 1.7334885561613456 0.22099685476012673 -14.51710274109182 0.7434520566530513 0.04016100201011165 -6.172287873738893 27.568024375512184 -2.270144548043526 10.871190773648497 18.526906186655378 7.576030343874031 5.285220782778892 14.3992626461442 0.31698114476189215 3.7945834605367645 -0.8648659530515798 1.9785639128960655 22.381125818490386 25.421185443946417 18.413280908514935 62.20356650384672 17.47617563851677 -0.000003989710590643795 -0.00001137121273269804 -16.930919445668295 -38.524643949887775 6.624181211994717 -1.086116175419597 0.08495291016748203 8.793567559243435 -2.831834501608932 0.6082153291334776 24.169449992654815 -1.2510704479464707 0.11107954944714357 10.23598836466298 -2.8700884033856693 0.616631616832978 24.745791061110072 -1.4640053652569505 0.1409097327270495 12.883089054678694 -3.0204616002080305 0.6133885842550734 25.017542267781426 -1.501982039321325 0.1631872203404302 11.947733800039448 -2.322874445978699 0.41806878328151464 20.252067632574192 -1.8113031603311822 0.22838324088109407 14.717562595239613 -2.28977365282088 0.38602936425826734 19.283903956627615 -2.428574227698939 0.42924335830114146 20.12791548435678 -1.621402113750667 0.19261171072122923 13.320450877775844 -22.977478290852236 0.675781457917447 -15.503163099454419 -21.759156887215212 9.104492587447309 -6.103906383687301 -16.15815893793145 4.077299920515893 -6.994389658115882 6.731443292925727 1.0821551994801744 0.9074337364862631 0.6071803769608035 8.620512555326574 -0.40205576056160197 0.14026523069812194 -8.250693738315858 -1.1703484844111707 -0.000001395561941783821 -0.34655609320536535 5.356209090391088e-7 -7.402932624090625 -2.0531951316241517 -0.3398784584823643 3.4265370872294674 12.533849312995713 -0.29473495723006315 0.0030043162448409695 -9.218048421190637 -0.14740023635923868 -8.430736496366517e-7 -0.00009246901024958005 2.134140486820792e-7
-0.01777309077707204 8.927398161454633 1.4048808769533512 -5.159272385192899 -1.3442301576439184 0.8108625162506785 -0.15802324737645942 0.28456029759604695 0.046741475740897626 -0.12946614773967163 -2.401417183874529 -0.3391073069564193 0 0 0 4.993794613344049 1.0454811137173754 2.9168288593509395 -2.1050680563954516 10.433012420182454 -2.115930448499237 0 0 0 0 0 0 5.23165741527756 0.7931974888175468 -13.239214753369076 -19.961585702440974 9.074809791902426 -69.51973640776812 -14.131671546529757 -0.0000238878110919512 0.0000035986198163470523 15.623386475564585 -12.692117301526865 -1.167787079103657 0.6696940179334683 0.032509711166824086 -5.600095111354245 0.9087663224956684 0.059321230736223036 -7.452089777504088 0.9532783454497957 0.06698501447100093 -7.987576889166951 6.450066501878162 2.204731685655726 -23.568626124119636 -2.081139716380397 0.3611233235828145 -17.401026316408654 0.9748226533711631 0.09927790314064865 -8.185727603210879 1.335587937700057 0.1301913883403232 -11.165962555458497 1.3969923572056158 0.14182662171296942 -11.634540922776427 1.1996945955439846 0.1046509093099057 -9.970867163276768 2.1024280237933435 0.3273420118382134 -17.69175682922781 1.7334869560564572 0.2209954673676313 -14.517119330603943 0.7434520566530513 0.04016100201011165 -6.172287873738893 27.56801515254993 -2.2701261774925103 10.871183221657603 18.526909453276133 7.5760234535376725 5.28520802979312 14.399271765075905 0.31698826854477424 3.7945943354872345 -0.8568018383869063 1.982048963885962 22.409506449858597 25.333249121646592 18.36321371733394 62.21147958332034 17.306481161157073 -0.0000018872509728941224 0.0000047196182727144646 -16.89061641876012 -38.51866819966499 6.658033052663422 -1.0861120140162162 0.08495978038484414 8.793562496809807 -2.8318304509081296 0.6082002805251087 24.16943924661719 -1.2510759961627238 0.11107692142020001 10.235996533217032 -2.8700879770096304 0.6166442640875619 24.74578795943057 -1.4639971503432996 0.1408877079684226 12.883111455506729 -3.0204641581172598 0.6134035261501478 25.01754835438628 -1.5019794788700749 0.1631909822958178 11.9476973042241 -2.322873379610205 0.4180519208031295 20.252046043905885 -1.8113052937157552 0.22838590894493463 14.717565898310948 -2.2897685341531386 0.3860300846461319 19.28390073306787 -2.428578919367924 0.42924007651659357 20.127932264569377 -1.6214006202365707 0.1926136717436539 13.320469111597358 -22.977479863029277 0.675780764178106 -15.503161453920548 -21.759167806083934 9.104487399443903 -6.103913691691144 -16.15815729367552 4.077314899466095 -6.994367144505786 6.732272147918077 1.1134013664107767 0.9038753653209411 0.633016422824894 8.557260009669312 -0.3999316409897085 0.13992452974994302 -8.219152851280352 -1.171946034687341 5.204977597115473e-7 -0.3202848196117233 -2.034848121154079e-7 -7.4002204939527525 -2.0271743992510363 -0.3387927240702274 3.3907129086851824 12.486875255607144 -0.3095264992956379 0.0022499155968913973 -9.198886979064179 -0.14005910194750118 -0.000001685947611328182 -0.000027685248042992304 6.403190900250916e-7
-0.017754362726753407 8.927778764204545 1.404841036666923 -5.181196543196788 -1.3428225382568533 0.8133111394370952 -0.15965805472586736 0.2880882677569945 0.05077295738242047 -0.13048417257524844 -2.4020315868365807 -0.3430758725006574 0 0 0 4.993075819843016 1.0375412011388099 2.931223402874444 -2.082539982628058 10.433688691162986 -2.051511382353887 0 0 0 0 0 0 5.23478413304406 0.7915460259412159 -13.232638882212253 -19.95025581660432 9.08561567023736 -69.52139062471755 -14.153338620634479 -0.00001809130768941219 0.000008840582263731088 15.622732357835362 -12.678212290660001 -1.1572979625869049 0.6697009010145012 0.03249352615052763 -5.600071319783882 0.9087632279538771 0.05930905111502408 -7.452096550006683 0.9532755710675124 0.06701379600070684 -7.9875735072025575 6.450068624372737 2.2047346760771718 -23.56860772840241 -2.081142489369552 0.36111814747727505 -17.401045261510195 0.9748098486010235 0.0992666373136721 -8.185703454820242 1.335588044393043 0.13020522217715236 -11.165938440920502 1.3969923572056158 0.14182662171296942 -11.634540922776427 1.1996945955439846 0.1046509093099057 -9.970867163276768 2.102430796735022 0.3273389168582353 -17.69172768662439 1.7334849292569285 0.22097268211397414 -14.517119330603943 0.7434520566530513 0.04016100201011165 -6.172287873738893 27.56803656131655 -2.270137498878574 10.87117986521708 18.52690455334496 7.576027759997883 5.285201168750999 14.399265954008793 0.31697663570081946 3.794593057614748 -0.8630175835787793 1.98305403020469 22.407662100187988 25.31393704577804 18.266616628736287 62.267032468450324 17.066273258243644 -0.0000125899532475372 0.0000020970582725674206 -16.817965773617328 -38.56031234574357 6.716993650322876 -1.0861136145559793 0.08496487635189798 8.793551849860268 -2.831832156466365 0.6081910485774421 24.169445318807725 -1.2510778100026476 0.11108277111469146 10.23598668428954 -2.87008520556537 0.6166601665427355 24.745778775614127 -1.4639948032251024 0.1408781029858662 12.883094880667809 -3.020463944958158 0.6134107302781451 25.01755289356038 -1.5019841730306958 0.1631989997964866 11.947713881568518 -2.3228706070521126 0.41805851104388647 20.25205405404371 -1.8113006002696879 0.22838142659768282 14.717558424541604 -2.2897730129874136 0.38603243257694997 19.28390718018724 -2.428569962545288 0.4292404233718709 20.127909499210926 -1.6214099013598482 0.19261727362157738 13.320480698947181 -22.9774827684472 0.6757868477384842 -15.503186317173839 -21.75916170557501 9.104481346773355 -6.103938562765315 -16.15816646775269 4.0773264546564425 -6.9943679940760175 6.726724408478765 1.1416623709226963 0.8960555123927224 0.6662201412297193 8.501526524610378 -0.3912115520937972 0.14017622120249557 -8.192042909181 -1.1755855252729652 9.403042147350839e-7 -0.30329071043176276 1.2183219203275043e-7 -7.402016593555954 -2.0008674693168733 -0.34043895167877253 3.346190504372819 12.443411320599722 -0.3225621699912389 0.0013716753106901897 -9.183722204048756 -0.1318558179541883 4.4534826861078726e-13 -0.0000038008978016451493 4.268856272372367e-7
